<svg xmlns="http://www.w3.org/2000/svg" viewBox="0 0 300 200" width="300" height="200">
  <rect width="300" height="200" fill="#f1f5f9"/>
  <!-- Mouse -->
  <rect x="60" y="50" width="40" height="60" rx="18" fill="#2563eb" opacity="0.15"/>
  <rect x="68" y="58" width="24" height="44" rx="10" fill="#fff"/>
  <line x1="80" y1="68" x2="80" y2="80" stroke="#2563eb" stroke-width="2" opacity="0.4"/>
  <!-- Keyboard -->
  <rect x="115" y="55" width="80" height="50" rx="4" fill="#2563eb" opacity="0.15"/>
  <rect x="120" y="60" width="70" height="40" rx="3" fill="#fff"/>
  <rect x="125" y="65" width="8" height="8" rx="1" fill="#2563eb" opacity="0.25"/>
  <rect x="137" y="65" width="8" height="8" rx="1" fill="#2563eb" opacity="0.25"/>
  <rect x="149" y="65" width="8" height="8" rx="1" fill="#2563eb" opacity="0.25"/>
  <rect x="161" y="65" width="8" height="8" rx="1" fill="#2563eb" opacity="0.25"/>
  <rect x="173" y="65" width="8" height="8" rx="1" fill="#2563eb" opacity="0.25"/>
  <rect x="125" y="77" width="8" height="8" rx="1" fill="#2563eb" opacity="0.25"/>
  <rect x="137" y="77" width="8" height="8" rx="1" fill="#2563eb" opacity="0.25"/>
  <rect x="149" y="77" width="8" height="8" rx="1" fill="#2563eb" opacity="0.25"/>
  <rect x="161" y="77" width="8" height="8" rx="1" fill="#2563eb" opacity="0.25"/>
  <rect x="173" y="77" width="8" height="8" rx="1" fill="#2563eb" opacity="0.25"/>
  <!-- Headphones -->
  <rect x="208" y="45" width="40" height="65" rx="6" fill="#2563eb" opacity="0.15"/>
  <circle cx="228" cy="68" r="16" fill="#fff"/>
  <rect x="212" y="63" width="32" height="6" rx="3" fill="#2563eb" opacity="0.3"/>
  <text x="150" y="170" font-family="'Inter',Arial,sans-serif" font-size="14" fill="#94a3b8" text-anchor="middle" font-weight="600">ACCESSORIES</text>
</svg>
